<mxfile host="app.diagrams.net" modified="2024-04-04T13:55:38.857Z" agent="Mozilla/5.0 (Macintosh; Intel Mac OS X 10_15_7) AppleWebKit/537.36 (KHTML, like Gecko) Chrome/123.0.0.0 Safari/537.36" version="24.2.2" etag="IJgaQmMIt0WkCUzY_2WV" type="github">
  <diagram name="Page-1" id="KE2XAD2Ir7j8X4anEEsy">
    <mxGraphModel>
      <root>
        <mxCell id="0" />
        <mxCell id="1" parent="0" />
      </root>
    </mxGraphModel>
  </diagram>
</mxfile>
